<svg xmlns="http://www.w3.org/2000/svg" width="54" height="54" viewBox="0 0 54 54"><defs><mask id="xj0ob" width="2" height="2" x="-1" y="-1"><path fill="#fff" d="M7 7h40v40H7z"/><path d="M27 7c11.046 0 20 8.954 20 20s-8.954 20-20 20S7 38.046 7 27 15.954 7 27 7z"/></mask><filter id="xj0oa" width="80" height="80" x="-13" y="-13" filterUnits="userSpaceOnUse"><feOffset in="SourceGraphic" result="FeOffset1071Out"/><feGaussianBlur in="FeOffset1071Out" result="FeGaussianBlur1072Out" stdDeviation="4 4"/></filter></defs><g><g><g><g filter="url(#xj0oa)"><path fill="none" d="M27 7c11.046 0 20 8.954 20 20s-8.954 20-20 20S7 38.046 7 27 15.954 7 27 7z" mask="url(&quot;#xj0ob&quot;)"/><path fill="#000001" fill-opacity=".05" d="M27 7c11.046 0 20 8.954 20 20s-8.954 20-20 20S7 38.046 7 27 15.954 7 27 7z"/></g><path fill="#fff" d="M27 7c11.046 0 20 8.954 20 20s-8.954 20-20 20S7 38.046 7 27 15.954 7 27 7z"/></g><g><path fill="#14986e" d="M29.616 25.704v-3.84h-3.792v3.84h-3.84v3.792h3.84v3.84h3.792v-3.84h3.84v-3.792z"/></g></g></g></svg>